<svg version="1" xmlns="http://www.w3.org/2000/svg" width="933.333" height="933.333" viewBox="0 0 700.000000 700.000000"><path d="M323.7 51.7c-.2.1-3.1.4-6.6.7-3.5.3-7.8.8-9.5 1.1-1.7.4-3.8.7-4.6.9-.8.1-3.5.6-6 1-6.5 1.1-8.5 1.4-8.5 1.6 0 .1-.7.3-1.5.5-21.8 4.6-47.5 13.8-69.5 24.7-85 42.2-143.6 119.9-161.9 214.3-.8 4.4-1.8 10-2.1 12.5-.3 2.5-.8 5.6-1 7-.2 1.4-.6 5.1-1 8.2l-.6 5.8h21.4c16.4 0 21.4-.3 21.4-1.3 0-1.9 1.3-12.9 1.8-15.7.3-1.4.7-4.1 1-6 3.6-21.8 14.1-52.6 25.3-74 18.8-35.8 35.9-56.6 70.7-85.9 5.6-4.7 28.2-18.9 39.5-24.8 21.7-11.4 55.6-23.1 74.5-25.8 2.3-.3 5.2-.8 6.5-1 1.4-.3 5.4-.8 9-1.1 3.6-.4 6.8-.8 7.3-1.1.4-.2.7-9.8.7-21.4V51l-3 .2c-1.7.1-3.2.3-3.3.5zM225 260v20h245v-40H225v20zM225 350v20h245v-40H225v20zM606.2 372.7c-.4 6.1-1.6 14.3-3.7 25.3-2.4 12.6-9.1 34.6-15.2 49.5-6.2 15-14 29.6-23.9 44.5-17.7 26.8-31.3 41-63.4 66.4-3.6 2.8-23.3 14.7-32 19.3-25.5 13.6-63.6 25.4-89 27.8-3.6.4-7.1.8-7.7 1-1 .3-1.3 5.5-1.3 21.4v21l6.3-.5c22.9-1.9 65.1-12 81.2-19.4 1.1-.5 4.9-2.1 8.5-3.5 42.6-17.3 87-50.8 117.2-88.5 23.5-29.3 42.9-66.4 53.5-102 4.3-14.6 7.8-29.9 8.9-38.5.3-2.2.7-4.7.9-5.5.2-.8.7-4.2 1-7.5.3-3.3.8-7.7 1-9.8l.5-3.7h-42.6l-.2 2.7zM225 440v20h245v-40H225v20z"/></svg>