<svg width="33" height="33" xmlns="http://www.w3.org/2000/svg">
    <defs>
        <style>.cls-1{fill:#00bfa5;}.cls-2{fill:#fff;}</style>
    </defs>
    <g>
        <path d="m17.906723,3.273956l0,1.939392a11.910292,11.910292 0 0 0 -10.87999,10.892105l-1.939392,0a13.854531,13.854531 0 0 1 12.829071,-12.829071" class="cls-1"/>
        <path d="m19.850952,28.927261a11.910292,11.910292 0 0 0 10.880005,-10.882416l1.939392,0a13.854531,13.854531 0 0 1 -12.829086,12.829086l0.009689,-1.946671z" class="cls-1"/>
        <rect transform="matrix(0.242424, 0, 0, 0.242424, -31.5151, -53.3333)" height="8.02" width="46.41" y="303.725059" x="184.6653" class="cls-2"/>
        <rect transform="matrix(0.242424, 0, 0, 0.242424, -31.5151, -53.3333)" height="8.02" width="46.41" y="286.425059" x="184.6653" class="cls-2"/>
        <rect transform="matrix(0.242424, 0, 0, 0.242424, -31.5151, -53.3333)" height="8.02" width="46.41" y="269.125059" x="184.6653" class="cls-2"/>
    </g>
</svg>
