<svg xmlns="http://www.w3.org/2000/svg" viewBox="130 220 550 160">
    <defs>
        <style>.cls-1{fill:#00bfa5;}.cls-2{fill:#0d47a1;}</style>
    </defs>
    <title>Opentender_logos_RGB</title>
    <path class="cls-1" d="M201.62,243.07v8A49.13,49.13,0,0,0,156.74,296h-8a57.15,57.15,0,0,1,52.92-52.92"/>
    <path class="cls-1" d="M209.64,348.89A49.13,49.13,0,0,0,254.52,304h8a57.15,57.15,0,0,1-52.92,52.92Z"/>
    <rect class="cls-2" x="182.42" y="313.29" width="46.41" height="8.02"/>
    <rect class="cls-2" x="182.42" y="295.99" width="46.41" height="8.02"/>
    <rect class="cls-2" x="182.42" y="278.69" width="46.41" height="8.02"/>
    <g transform="translate(0,-30)">
    <path class="cls-2"
          d="M619.61,292.2h5.48v15.6h-6.21v7.31h20.84V307.8h-6.95V298a7.74,7.74,0,0,1,1.46-5.06,4.94,4.94,0,0,1,4-1.77,4.78,4.78,0,0,1,3.84,1.49,5.92,5.92,0,0,1,1.28,4v.85l7.92-.73v-1.34q0-5.79-2.74-8.62A9.63,9.63,0,0,0,641.3,284a8.58,8.58,0,0,0-4.9,1.37,7.37,7.37,0,0,0-2.89,3.87h-1.1v-4.39h-12.8Zm-17,.18a5.41,5.41,0,0,1,2.29,3.53H590.67a6.82,6.82,0,0,1,2.38-3.44A7.27,7.27,0,0,1,597.8,291a8,8,0,0,1,4.84,1.4m10.08,10.11v-4.08a15.28,15.28,0,0,0-.85-4.91,13.68,13.68,0,0,0-2.68-4.63,14.47,14.47,0,0,0-4.63-3.47,15.12,15.12,0,0,0-6.7-1.37,15.61,15.61,0,0,0-5.94,1.13,15,15,0,0,0-4.84,3.14,14.36,14.36,0,0,0-3.26,4.87,16.38,16.38,0,0,0-1.19,6.34v.37a19,19,0,0,0,1.13,6.76,14.23,14.23,0,0,0,3.17,5.06,13.75,13.75,0,0,0,4.84,3.17A16.93,16.93,0,0,0,598,316a18.14,18.14,0,0,0,5.21-.67,14.05,14.05,0,0,0,3.78-1.71,10.68,10.68,0,0,0,2.53-2.28,13,13,0,0,0,1.52-2.41l-6.58-3.65a6,6,0,0,1-2.19,2.41,8,8,0,0,1-4.39,1,8.36,8.36,0,0,1-2.77-.46,7.49,7.49,0,0,1-2.32-1.28,6.09,6.09,0,0,1-1.58-1.95,5.92,5.92,0,0,1-.64-2.47Zm-58.4,3.93a8.19,8.19,0,0,1-2.22-6.06v-.73a8.19,8.19,0,0,1,2.22-6.06,7.87,7.87,0,0,1,5.82-2.22,7.76,7.76,0,0,1,5.82,2.28,8.23,8.23,0,0,1,2.22,6v.73a8.23,8.23,0,0,1-2.22,6,7.75,7.75,0,0,1-5.82,2.29,7.87,7.87,0,0,1-5.82-2.22m13.86,8.68h7.68V272.46h-7.68v16.82h-1.1a9.35,9.35,0,0,0-3.35-3.87A10.62,10.62,0,0,0,558,284a13.33,13.33,0,0,0-5.21,1,12.55,12.55,0,0,0-4.33,3,14.21,14.21,0,0,0-2.92,4.84,18.58,18.58,0,0,0-1.07,6.52v1.1a19.82,19.82,0,0,0,1,6.58,14,14,0,0,0,2.8,4.84,11.69,11.69,0,0,0,4.2,3,13.34,13.34,0,0,0,5.21,1,14.34,14.34,0,0,0,3.75-.43,9.51,9.51,0,0,0,2.68-1.16,7,7,0,0,0,1.83-1.68,11.64,11.64,0,0,0,1.19-2h1.1Zm-51.3-15.72a10.12,10.12,0,0,1,1.68-6.12,5.89,5.89,0,0,1,5.09-2.29,5.51,5.51,0,0,1,4.48,1.86,7.69,7.69,0,0,1,1.55,5.09v17.18h7.68V296a15.68,15.68,0,0,0-.82-5.36,10,10,0,0,0-2.29-3.72,9.18,9.18,0,0,0-3.38-2.16,11.93,11.93,0,0,0-4.11-.7,10.27,10.27,0,0,0-5.42,1.4,8,8,0,0,0-3.35,4h-1.1v-4.51h-7.68v30.22h7.68Zm-26.11-7a5.41,5.41,0,0,1,2.28,3.53H478.81a6.82,6.82,0,0,1,2.38-3.44,7.27,7.27,0,0,1,4.75-1.49,8,8,0,0,1,4.84,1.4m10.08,10.11v-4.08a15.34,15.34,0,0,0-.85-4.91,13.72,13.72,0,0,0-2.68-4.63,14.51,14.51,0,0,0-4.63-3.47A15.13,15.13,0,0,0,486,284a15.61,15.61,0,0,0-5.94,1.13,15,15,0,0,0-4.84,3.14,14.36,14.36,0,0,0-3.26,4.87,16.38,16.38,0,0,0-1.19,6.34v.37a19,19,0,0,0,1.13,6.76,14.28,14.28,0,0,0,3.17,5.06,13.78,13.78,0,0,0,4.84,3.17,17,17,0,0,0,6.22,1.1,18.15,18.15,0,0,0,5.21-.67,14.08,14.08,0,0,0,3.78-1.71,10.68,10.68,0,0,0,2.53-2.28,13,13,0,0,0,1.52-2.41l-6.58-3.65a6,6,0,0,1-2.19,2.41,8,8,0,0,1-4.39,1,8.38,8.38,0,0,1-2.77-.46,7.5,7.5,0,0,1-2.31-1.28,6.09,6.09,0,0,1-1.58-1.95,5.92,5.92,0,0,1-.64-2.47Zm-64.64-10.3h9v18.16a4.67,4.67,0,0,0,1.31,3.41,4.52,4.52,0,0,0,3.38,1.34h12.79V307.8H454.5q-1.64,0-1.64-1.83V292.2h10.91v-7.31H452.86V272.46h-7.68v12.43h-9Zm-28.76,7.19a10.14,10.14,0,0,1,1.67-6.12,5.89,5.89,0,0,1,5.09-2.29,5.51,5.51,0,0,1,4.48,1.86,7.69,7.69,0,0,1,1.55,5.09v17.18h7.68V296a15.68,15.68,0,0,0-.82-5.36,10,10,0,0,0-2.28-3.72,9.19,9.19,0,0,0-3.38-2.16,11.93,11.93,0,0,0-4.11-.7,10.28,10.28,0,0,0-5.42,1.4,8,8,0,0,0-3.35,4h-1.1v-4.51h-7.68v30.22h7.68Zm-26.11-7a5.41,5.41,0,0,1,2.29,3.53H369.39a6.82,6.82,0,0,1,2.38-3.44,7.27,7.27,0,0,1,4.75-1.49,8,8,0,0,1,4.84,1.4m10.08,10.11v-4.08a15.34,15.34,0,0,0-.85-4.91,13.68,13.68,0,0,0-2.68-4.63,14.47,14.47,0,0,0-4.63-3.47,15.13,15.13,0,0,0-6.7-1.37,15.61,15.61,0,0,0-5.94,1.13,15,15,0,0,0-4.84,3.14,14.36,14.36,0,0,0-3.26,4.87,16.38,16.38,0,0,0-1.19,6.34v.37a19,19,0,0,0,1.13,6.76,14.23,14.23,0,0,0,3.17,5.06,13.76,13.76,0,0,0,4.84,3.17,17,17,0,0,0,6.22,1.1,18.14,18.14,0,0,0,5.21-.67,14.08,14.08,0,0,0,3.78-1.71,10.68,10.68,0,0,0,2.53-2.28,13,13,0,0,0,1.52-2.41l-6.58-3.65a6,6,0,0,1-2.19,2.41,8,8,0,0,1-4.39,1,8.36,8.36,0,0,1-2.77-.46,7.49,7.49,0,0,1-2.32-1.28,6.09,6.09,0,0,1-1.58-1.95,5.92,5.92,0,0,1-.64-2.47Zm-57.91,3.87a8.23,8.23,0,0,1-2.22-6v-.73a8.23,8.23,0,0,1,2.22-6,7.75,7.75,0,0,1,5.82-2.28,7.87,7.87,0,0,1,5.82,2.22,8.19,8.19,0,0,1,2.22,6.06v.73a8.19,8.19,0,0,1-2.22,6.06,7.87,7.87,0,0,1-5.82,2.22,7.75,7.75,0,0,1-5.82-2.29m-2.22,4.36h1.1a12.25,12.25,0,0,0,1.31,2,8,8,0,0,0,1.89,1.68,9.59,9.59,0,0,0,2.65,1.16,14.52,14.52,0,0,0,8.8-.58,11.45,11.45,0,0,0,4.17-3,14.66,14.66,0,0,0,2.8-4.84,19.25,19.25,0,0,0,1-6.58v-1.1a18.62,18.62,0,0,0-1.07-6.52,14.79,14.79,0,0,0-2.86-4.84,12.09,12.09,0,0,0-4.2-3,12.74,12.74,0,0,0-5.09-1,11.46,11.46,0,0,0-5.91,1.37,8.94,8.94,0,0,0-3.53,3.87h-1.1v-4.39h-7.68v42.4h7.68Zm-32.6-2.62a7.38,7.38,0,0,1-4.3-4.11,8.51,8.51,0,0,1-.64-3.38v-1.22a8.53,8.53,0,0,1,.64-3.38,7.38,7.38,0,0,1,4.3-4.11,9.08,9.08,0,0,1,6.21,0,7.38,7.38,0,0,1,4.3,4.11,8.53,8.53,0,0,1,.64,3.38v1.22a8.51,8.51,0,0,1-.64,3.38,7.38,7.38,0,0,1-4.3,4.11,9.05,9.05,0,0,1-6.21,0m18.83-8.47a16.18,16.18,0,0,0-1.28-6.61,14.53,14.53,0,0,0-3.47-4.91,15,15,0,0,0-5-3,17.55,17.55,0,0,0-11.88,0,15,15,0,0,0-5,3,14.53,14.53,0,0,0-3.47,4.91,16.18,16.18,0,0,0-1.28,6.61v.73a16.33,16.33,0,0,0,1.28,6.67,14.17,14.17,0,0,0,3.47,4.87,15.19,15.19,0,0,0,5,3,17.55,17.55,0,0,0,11.88,0,15.19,15.19,0,0,0,5-3,14.17,14.17,0,0,0,3.47-4.87,16.33,16.33,0,0,0,1.28-6.67Z"/>
    </g>
</svg>